<?xml version="1.0" encoding="UTF-8" standalone="no"?>
<!DOCTYPE svg PUBLIC "-//W3C//DTD SVG 1.1//EN"
 "http://www.w3.org/Graphics/SVG/1.1/DTD/svg11.dtd">
<!-- Generated by graphviz version 2.43.0 (0)
 -->
<!-- Title: %3 Pages: 1 -->
<svg width="817pt" height="238pt"
 viewBox="0.00 0.00 816.68 238.00" xmlns="http://www.w3.org/2000/svg" xmlns:xlink="http://www.w3.org/1999/xlink">
<g id="graph0" class="graph" transform="scale(1 1) rotate(0) translate(4 234)">
<title>%3</title>
<polygon fill="white" stroke="transparent" points="-4,4 -4,-234 812.68,-234 812.68,4 -4,4"/>
<g id="clust1" class="cluster">
<title>cluster2</title>
<g id="a_clust1"><a xlink:title="Security Boundary">
<polygon fill="none" stroke="black" stroke-dasharray="5,2" points="432,-8 432,-222 800.68,-222 800.68,-8 432,-8"/>
</a>
</g>
</g>
<!-- user -->
<g id="node1" class="node">
<title>user</title>
<polygon fill="#5b9bd5" stroke="black" points="86,-160 32,-160 32,-124 86,-124 86,-160"/>
<text text-anchor="middle" x="59" y="-138.3" font-family="sans" font-size="14.00" fill="white">User</text>
</g>
<!-- browser -->
<g id="node2" class="node">
<title>browser</title>
<g id="a_node2"><a xlink:title="Web Browser">
<polygon fill="#5b9bd5" stroke="black" points="261,-133 154,-133 154,-97 261,-97 261,-133"/>
<text text-anchor="middle" x="207.5" y="-111.3" font-family="sans" font-size="14.00" fill="white">Web Browser</text>
</a>
</g>
</g>
<!-- user&#45;&gt;browser -->
<g id="edge1" class="edge">
<title>user&#45;&gt;browser</title>
<path fill="none" stroke="black" d="M86.19,-137.17C102.32,-134.2 123.72,-130.26 144,-126.52"/>
<polygon fill="black" stroke="black" points="144.64,-129.96 153.84,-124.71 143.37,-123.08 144.64,-129.96"/>
</g>
<!-- server -->
<g id="node4" class="node">
<title>server</title>
<g id="a_node4"><a xlink:title="Cloud Server">
<polygon fill="#5b9bd5" stroke="black" points="404,-133 297,-133 297,-97 404,-97 404,-133"/>
<text text-anchor="middle" x="350.5" y="-111.3" font-family="sans" font-size="14.00" fill="white">Cloud Server</text>
</a>
</g>
</g>
<!-- browser&#45;&gt;server -->
<g id="edge2" class="edge">
<title>browser&#45;&gt;server</title>
<path fill="none" stroke="black" d="M261,-108.45C269.44,-108.26 278.26,-108.2 286.9,-108.29"/>
<polygon fill="black" stroke="black" points="286.9,-111.79 296.95,-108.45 287.01,-104.79 286.9,-111.79"/>
</g>
<!-- traffic -->
<g id="node3" class="node">
<title>traffic</title>
<g id="a_node3"><a xlink:title="Internet Traffic">
<polygon fill="#5b9bd5" stroke="black" points="118,-106 0,-106 0,-70 118,-70 118,-106"/>
<text text-anchor="middle" x="59" y="-84.3" font-family="sans" font-size="14.00" fill="white">Internet Traffic</text>
</a>
</g>
</g>
<!-- traffic&#45;&gt;browser -->
<g id="edge4" class="edge">
<title>traffic&#45;&gt;browser</title>
<path fill="none" stroke="black" d="M118.32,-98.75C126.6,-100.28 135.15,-101.85 143.52,-103.39"/>
<polygon fill="black" stroke="black" points="143.13,-106.88 153.6,-105.25 144.4,-100 143.13,-106.88"/>
</g>
<!-- server&#45;&gt;browser -->
<g id="edge3" class="edge">
<title>server&#45;&gt;browser</title>
<path fill="none" stroke="black" d="M296.95,-121.55C288.51,-121.74 279.7,-121.8 271.05,-121.71"/>
<polygon fill="black" stroke="black" points="271.06,-118.21 261,-121.55 270.95,-125.21 271.06,-118.21"/>
</g>
<!-- gateway -->
<g id="node5" class="node">
<title>gateway</title>
<g id="a_node5"><a xlink:title="Internet Gateway">
<polygon fill="#5b9bd5" stroke="black" points="576,-133 440,-133 440,-97 576,-97 576,-133"/>
<text text-anchor="middle" x="508" y="-111.3" font-family="sans" font-size="14.00" fill="white">Internet Gateway</text>
</a>
</g>
</g>
<!-- server&#45;&gt;gateway -->
<g id="edge5" class="edge">
<title>server&#45;&gt;gateway</title>
<path fill="none" stroke="black" d="M404.15,-115C412.38,-115 421.03,-115 429.68,-115"/>
<polygon fill="black" stroke="black" points="429.8,-118.5 439.8,-115 429.8,-111.5 429.8,-118.5"/>
</g>
<!-- mongodb -->
<g id="node6" class="node">
<title>mongodb</title>
<g id="a_node6"><a xlink:title="MongoDB">
<polygon fill="#ffc000" stroke="black" points="743.84,-52 660.84,-52 660.84,-16 743.84,-16 743.84,-52"/>
<text text-anchor="middle" x="702.34" y="-30.3" font-family="sans" font-size="14.00">MongoDB</text>
</a>
</g>
</g>
<!-- gateway&#45;&gt;mongodb -->
<g id="edge6" class="edge">
<title>gateway&#45;&gt;mongodb</title>
<path fill="none" stroke="black" d="M539.82,-96.87C559.91,-85.56 586.96,-71.24 612,-61 627.6,-54.62 645.27,-48.97 660.75,-44.51"/>
</g>
<!-- ec2instances -->
<g id="node7" class="node">
<title>ec2instances</title>
<g id="a_node7"><a xlink:title="EC2 Instances">
<polygon fill="#ffc000" stroke="black" points="760.34,-106 644.34,-106 644.34,-70 760.34,-70 760.34,-106"/>
<text text-anchor="middle" x="702.34" y="-84.3" font-family="sans" font-size="14.00">EC2 Instances</text>
</a>
</g>
</g>
<!-- gateway&#45;&gt;ec2instances -->
<g id="edge7" class="edge">
<title>gateway&#45;&gt;ec2instances</title>
<path fill="none" stroke="black" d="M576,-105.59C598.23,-102.47 622.75,-99.03 644.16,-96.03"/>
</g>
<!-- s3storage -->
<g id="node8" class="node">
<title>s3storage</title>
<g id="a_node8"><a xlink:title="S3 Storage">
<polygon fill="#ffc000" stroke="black" points="748.84,-160 655.84,-160 655.84,-124 748.84,-124 748.84,-160"/>
<text text-anchor="middle" x="702.34" y="-138.3" font-family="sans" font-size="14.00">S3 Storage</text>
</a>
</g>
</g>
<!-- gateway&#45;&gt;s3storage -->
<g id="edge8" class="edge">
<title>gateway&#45;&gt;s3storage</title>
<path fill="none" stroke="black" d="M576,-124.41C602.35,-128.1 631.92,-132.25 655.72,-135.6"/>
</g>
<!-- dashboard -->
<g id="node9" class="node">
<title>dashboard</title>
<g id="a_node9"><a xlink:title="Billing Dashboard">
<ellipse fill="#70ad47" stroke="black" cx="702.34" cy="-196" rx="90.18" ry="18"/>
<text text-anchor="middle" x="702.34" y="-192.3" font-family="sans" font-size="14.00">Billing Dashboard</text>
</a>
</g>
</g>
<!-- gateway&#45;&gt;dashboard -->
<g id="edge9" class="edge">
<title>gateway&#45;&gt;dashboard</title>
<path fill="none" stroke="black" d="M539.82,-133.13C559.91,-144.44 586.96,-158.76 612,-169 623.4,-173.66 635.9,-177.93 647.85,-181.64"/>
</g>
</g>
</svg>
